<?xml version="1.0" encoding="iso-8859-1"?>
<!-- Uploaded to: SVG Repo, www.svgrepo.com, Generator: SVG Repo Mixer Tools -->
<svg version="1.1" id="Layer_1" xmlns="http://www.w3.org/2000/svg" xmlns:xlink="http://www.w3.org/1999/xlink" 
	 viewBox="0 0 512 512" xml:space="preserve">
<path style="fill:#8A6746;" d="M437.901,146.517c-15.719-13.299-36.037-21.33-58.192-21.33c-32.355,0-62.416,17.513-78.447,45.685
	l-8.803,15.479l16.491,6.738c22.467,9.179,42.129,22.603,57.847,39.083c14.905,15.625,26.253,34.003,33.054,54.134l5.904,17.45
	l16.261-8.647c29.56-15.719,47.918-46.259,47.918-79.699C469.933,187.821,457.479,163.08,437.901,146.517z M421.588,256.892
	c-1.606-3.338-3.317-6.623-5.132-9.857c-7.969-14.206-17.92-27.338-29.56-39.072c-11.202-11.296-23.948-21.32-37.998-29.758
	c-3.181-1.919-6.425-3.755-9.742-5.507c10.806-10.253,25.294-16.219,40.554-16.219c14.571,0,27.922,5.309,38.207,14.112
	c12.673,10.806,20.725,26.89,20.725,44.82C438.642,231.212,432.373,246.013,421.588,256.892z"/>
<path style="fill:#664B33;" d="M469.933,215.41c0,33.44-18.358,63.98-47.918,79.699l-16.261,8.647l-5.904-17.45
	c-6.801-20.131-18.149-38.509-33.054-54.134l20.099-24.209c11.64,11.734,21.591,24.866,29.56,39.072
	c1.815,3.233,3.526,6.519,5.132,9.857c10.785-10.879,17.054-25.68,17.054-41.482c0-17.93-8.052-34.014-20.725-44.82l19.985-24.074
	C457.479,163.08,469.933,187.821,469.933,215.41z"/>
<path style="fill:#DFCCBE;" d="M436.149,302.901c-1.481-9.012-3.713-17.899-6.655-26.618
	c-16.897-49.962-56.523-90.839-108.717-112.159c-9.533-3.891-19.39-7.093-29.445-9.544V0H189.114v154.569
	c-85.947,20.965-147.049,92.988-147.049,175.659c0,48.835,20.798,94.656,58.567,129.035C137.994,493.267,187.57,512,240.223,512
	s102.229-18.733,139.591-52.736c37.769-34.379,58.567-80.2,58.567-129.035C438.381,321.05,437.63,311.912,436.149,302.901z"/>
<path style="fill:#C9AD91;" d="M438.381,330.228c0,48.835-20.798,94.656-58.567,129.035C342.452,493.267,292.876,512,240.223,512V0
	h51.109v154.579c10.055,2.451,19.912,5.653,29.445,9.544c52.194,21.32,91.819,62.197,108.717,112.159
	c2.941,8.72,5.173,17.607,6.655,26.618C437.63,311.912,438.381,321.05,438.381,330.228z"/>
<path style="fill:#FF9A00;" d="M407.089,330.228c0,82.974-74.859,150.48-166.867,150.48S73.356,413.203,73.356,330.228
	c0-26.921,7.979-52.507,22.092-74.682h289.654c6.133,9.638,11.098,19.943,14.749,30.759
	C404.649,300.502,407.089,315.281,407.089,330.228z"/>
<path style="fill:#FF8900;" d="M407.089,330.228c0,82.974-74.859,150.48-166.867,150.48V255.546h144.879
	c6.133,9.638,11.098,19.943,14.749,30.759C404.649,300.502,407.089,315.281,407.089,330.228z"/>
<rect id="SVGCleanerId_0" x="163.509" y="55.977" style="fill:#8A6746;" width="153.42" height="31.29"/>
<path style="fill:#FFC473;" d="M207.216,456.609c-77.856-13.944-105.715-88.255-106.862-91.411l29.39-10.74
	c0.058,0.155,5.938,15.775,19.418,32.395c17.36,21.403,38.748,34.51,63.571,38.956L207.216,456.609z"/>
<g>
	<rect id="SVGCleanerId_0_1_" x="163.509" y="55.977" style="fill:#8A6746;" width="153.42" height="31.29"/>
</g>
<rect x="240.219" y="55.977" style="fill:#664B33;" width="76.72" height="31.29"/>
</svg>