<?xml version="1.0" encoding="iso-8859-1"?>
<!-- Uploaded to: SVG Repo, www.svgrepo.com, Generator: SVG Repo Mixer Tools -->
<svg version="1.1" id="Layer_1" xmlns="http://www.w3.org/2000/svg" xmlns:xlink="http://www.w3.org/1999/xlink" 
	 viewBox="0 0 512 512" xml:space="preserve">
<rect x="154.87" y="76.28" style="fill:#8A6746;" width="31.34" height="71.2"/>
<rect x="104.72" y="131.81" style="fill:#FF3D63;" width="131.63" height="86.77"/>
<rect x="170.53" y="76.28" style="fill:#664B33;" width="15.681" height="71.2"/>
<rect x="170.53" y="131.81" style="fill:#FF0335;" width="65.827" height="86.77"/>
<polygon style="fill:#DFCCBE;" points="341.065,294.335 284.369,495.797 56.707,495.797 0,294.335 59.339,187.243 281.736,187.243 
	"/>
<polygon style="fill:#C9AD91;" points="341.065,294.335 284.369,495.797 170.527,495.797 170.527,187.243 281.736,187.243 "/>
<path style="fill:#8A6746;" d="M450.331,311.432H418.99v-44.784c0-74.886-22.255-129.968-66.147-163.717
	c-29.691-22.83-58.98-27.573-63.653-28.203h-81.739V43.387h83.472l0.79,0.08c1.657,0.168,41.018,4.465,80.234,34.619
	c22.96,17.653,41.222,40.537,54.283,68.011c15.992,33.643,24.1,74.201,24.1,120.551L450.331,311.432L450.331,311.432z"/>
<rect x="125.01" y="16.203" style="fill:#FF3D63;" width="91.06" height="85.7"/>
<polygon style="fill:#00AD94;" points="309.954,302.944 263.6,467.652 77.475,467.652 31.111,302.944 31.675,301.91 309.39,301.91 
	"/>
<path style="fill:#FF3D63;" d="M512,418.457c0,42.645-34.695,77.34-77.34,77.34s-77.34-34.695-77.34-77.34
	c0-72.2,63.842-133.576,66.558-136.157l10.698-10.144l0.084,0.073l10.698,9.987C448.074,284.756,512,345.275,512,418.457z"/>
<rect x="100.02" y="283.11" style="fill:#8A6746;" width="141.03" height="83.58"/>
<path style="fill:#FF0335;" d="M512,418.457c0,42.645-34.695,77.34-77.34,77.34V272.23l10.698,9.987
	C448.074,284.756,512,345.275,512,418.457z"/>
<polygon style="fill:#008878;" points="309.954,302.944 263.6,467.652 170.527,467.652 170.527,301.91 309.39,301.91 "/>
<rect x="170.53" y="283.11" style="fill:#664B33;" width="70.52" height="83.58"/>
<rect x="170.53" y="16.203" style="fill:#FF0335;" width="45.539" height="85.7"/>
</svg>